<svg xmlns="http://www.w3.org/2000/svg" viewBox="0 0 120 120">
  <rect x="14" y="36" width="92" height="35" rx="10" fill="#141a22" stroke="#f4f7fb" stroke-width="4" opacity="0.9"/>
  <rect x="22" y="45" width="8" height="17" rx="3" fill="#b7ff3c" opacity="0.9"/>
  <rect x="34" y="45" width="8" height="17" rx="3" fill="#f4f7fb" opacity="0.36"/>
  <rect x="46" y="45" width="8" height="17" rx="3" fill="#b7ff3c" opacity="0.72"/>
  <rect x="58" y="45" width="8" height="17" rx="3" fill="#f4f7fb" opacity="0.45"/>
  <rect x="70" y="45" width="8" height="17" rx="3" fill="#b7ff3c" opacity="0.9"/>
  <rect x="82" y="45" width="8" height="17" rx="3" fill="#f4f7fb" opacity="0.34"/>
  <rect x="94" y="45" width="8" height="17" rx="3" fill="#b7ff3c" opacity="0.62"/>
  <path d="M19 78h14l12-11 13 8 14-20 10 9 18-25" fill="none" stroke="#b7ff3c" stroke-width="5" stroke-linecap="round" stroke-linejoin="round"/>
  <circle cx="33" cy="78" r="3.5" fill="#f4f7fb" opacity="0.65"/>
  <circle cx="58" cy="75" r="3.5" fill="#f4f7fb" opacity="0.65"/>
  <circle cx="82" cy="64" r="3.5" fill="#f4f7fb" opacity="0.65"/>
  <path d="M84 20v18M75 29h18M79 24l10 10M89 24l-10 10" fill="none" stroke="#48e5c2" stroke-width="4" stroke-linecap="round" stroke-linejoin="round" opacity="0.9"/>
</svg>
